<?xml version="1.0" encoding="UTF-8" standalone="no"?><!DOCTYPE svg PUBLIC "-//W3C//DTD SVG 1.1//EN" "http://www.w3.org/Graphics/SVG/1.1/DTD/svg11.dtd"><svg width="100%" height="100%" viewBox="0 0 901 900" version="1.1" xmlns="http://www.w3.org/2000/svg" xmlns:xlink="http://www.w3.org/1999/xlink" xml:space="preserve" xmlns:serif="http://www.serif.com/" style="fill-rule:evenodd;clip-rule:evenodd;stroke-linejoin:round;stroke-miterlimit:1.41421;"><rect id="Maverick-Logo--white-" serif:id="Maverick Logo (white)" x="0.158" y="0" width="900" height="900" style="fill:none;"/><g><g><path d="M219.335,147.307l-25.603,-25.603l0,418.1l25.603,0l0,-392.497Z" style="fill:#fff;"/><path d="M680.98,147.307l25.603,-25.603l0,418.1l-25.603,0l0,-392.497Z" style="fill:#fff;"/><path d="M293.144,221.116l-25.57,-25.57l0,344.258l25.57,0l0,-318.688Z" style="fill:#fff;"/><path d="M607.171,221.116l25.57,-25.57l0,344.258l-25.57,0l0,-318.688Z" style="fill:#fff;"/><path d="M558.914,263.639l0,35.857l-108.756,105.941l-108.757,-105.941l0,-35.857l108.757,108.756l108.756,-108.756Z" style="fill:#fff;"/></g><g><path d="M251.139,688.635l0,-45.439l-21.289,19.383l-21.29,-19.383l0,45.439l-14.828,0l0,-74.248l5.084,0l31.034,28.174l30.927,-28.174l5.19,0l0,74.248l-14.828,0Z" style="fill:#fff;fill-rule:nonzero;"/><path d="M314.372,614.387l-37.813,74.248l16.629,0l22.984,-45.121l21.184,45.121l16.417,0l-35.059,-74.248l-4.342,0Z" style="fill:#fff;fill-rule:nonzero;"/><path d="M376.439,688.635l33.47,-74.248l-16.417,0l-19.277,42.155l-19.383,-42.155l-16.417,0l33.576,74.248l4.448,0Z" style="fill:#fff;fill-rule:nonzero;"/><path d="M471.553,614.387l-49.463,0l0,14.828l49.463,0l0,-14.828Zm-49.463,43.426l40.99,0l0,-14.828l-40.99,0l0,14.828Zm0,30.822l49.145,0l0,-14.828l-49.145,0l0,14.828Z" style="fill:#fff;fill-rule:nonzero;"/><path d="M513.284,629.109c4.131,0 7.415,3.39 7.415,7.521c0,4.13 -3.284,7.414 -7.415,7.414l-5.719,0l0,14.828l13.875,29.763l15.782,0l-14.723,-31.775c7.732,-3.495 13.028,-11.227 13.028,-20.23c0,-12.287 -9.956,-22.349 -22.243,-22.349l-29.021,0l0,74.248l14.828,0l0,-59.42l14.193,0Z" style="fill:#fff;fill-rule:nonzero;"/><rect x="547.178" y="614.387" width="14.828" height="74.142" style="fill:#fff;fill-rule:nonzero;"/><path d="M634.771,621.378c-6.566,-5.085 -14.828,-8.156 -23.725,-8.156c-21.184,0 -38.448,17.264 -38.448,38.448c0,21.183 17.264,38.448 38.448,38.448c9.321,0 17.9,-3.39 24.573,-8.897l-9.533,-10.91c-13.981,10.592 -36.965,2.225 -36.965,-18.641c0,-19.913 21.713,-28.598 36.118,-19.277l9.532,-11.015Z" style="fill:#fff;fill-rule:nonzero;"/><path d="M688.895,688.529l17.688,0l-26.585,-45.121l25.95,-29.021l-20.019,0l-21.713,23.937l0,-23.937l-14.828,0l0,74.142l14.828,0l0,-28.068l5.72,-5.825l18.959,33.893Z" style="fill:#fff;fill-rule:nonzero;"/></g><g><path d="M204.612,777.68c3.102,0 5.61,-0.821 7.526,-2.463c2.19,-2.007 3.285,-4.858 3.285,-8.553l0,-25.591c0,-3.695 -1.095,-6.569 -3.285,-8.622c-1.916,-1.779 -4.424,-2.669 -7.526,-2.669l-10.88,0l0,47.898l10.88,0Zm-5.064,-42.081l5.064,0c1.733,0 2.999,0.444 3.797,1.334c0.798,0.889 1.198,2.269 1.198,4.14l0,25.591c0,1.961 -0.457,3.353 -1.369,4.174c-0.73,0.684 -1.939,1.026 -3.626,1.026l-5.064,0l0,-36.265Z" style="fill:#fff;fill-rule:nonzero;"/><rect x="282.07" y="729.782" width="5.816" height="47.898" style="fill:#fff;fill-rule:nonzero;"/><path d="M365.412,778.296c3.057,0 5.588,-0.889 7.595,-2.668c2.144,-2.008 3.216,-4.881 3.216,-8.622l0,-16.149l-10.811,0l0,5.817l4.995,0l0,10.332c0,1.87 -0.399,3.25 -1.197,4.14c-0.798,0.889 -2.064,1.334 -3.798,1.334c-1.733,0 -3.011,-0.445 -3.832,-1.334c-0.821,-0.89 -1.231,-2.27 -1.231,-4.14l0,-26.549c0,-1.871 0.41,-3.25 1.231,-4.14c0.821,-0.89 2.099,-1.334 3.832,-1.334c1.734,0 3,0.444 3.798,1.334c0.798,0.89 1.197,2.269 1.197,4.14l0,4.379l5.816,0l0,-4.379c0,-3.695 -1.072,-6.569 -3.216,-8.622c-2.007,-1.779 -4.538,-2.669 -7.595,-2.669c-3.056,0 -5.588,0.89 -7.595,2.669c-2.19,2.053 -3.284,4.927 -3.284,8.622l0,26.549c0,3.741 1.094,6.614 3.284,8.622c2.007,1.779 4.539,2.668 7.595,2.668Z" style="fill:#fff;fill-rule:nonzero;"/><rect x="442.87" y="729.782" width="5.816" height="47.898" style="fill:#fff;fill-rule:nonzero;"/><path d="M535.793,729.851l0,5.816l-8.075,0l0,42.013l-5.816,0l0,-42.013l-8.006,0l0,-5.816l21.897,0Z" style="fill:#fff;fill-rule:nonzero;"/><path d="M616.261,777.68l-1.847,-9.921l-9.99,0l-1.916,9.921l-5.953,0l10.058,-47.898l5.611,0l9.99,47.898l-5.953,0Zm-10.743,-15.738l7.801,0l-3.9,-20.596l-3.901,20.596Z" style="fill:#fff;fill-rule:nonzero;"/><path d="M706.583,777.68l0,-5.816l-13.069,0l0,-42.082l-5.816,0l0,47.898l18.885,0Z" style="fill:#fff;fill-rule:nonzero;"/></g></g></svg>