<?xml version="1.0" standalone="no"?>
<!DOCTYPE svg PUBLIC "-//W3C//DTD SVG 20010904//EN"
 "http://www.w3.org/TR/2001/REC-SVG-20010904/DTD/svg10.dtd">
<svg version="1.0" xmlns="http://www.w3.org/2000/svg"
 width="1007.000000pt" height="1007.000000pt" viewBox="0 0 1007.000000 1007.000000"
 preserveAspectRatio="xMidYMid meet">
<metadata>
Created by potrace 1.11, written by Peter Selinger 2001-2013
</metadata>
<g transform="translate(0.000000,1007.000000) scale(0.100000,-0.100000)"
fill="#000000" stroke="none">
<path d="M4750 9955 c-8 -3 -91 -11 -185 -20 -448 -39 -961 -165 -1390 -341
-178 -73 -502 -237 -668 -338 -196 -119 -472 -314 -601 -426 -475 -408 -798
-788 -1099 -1290 -147 -246 -305 -587 -417 -900 -101 -282 -210 -779 -235
-1070 -4 -41 -8 -88 -10 -105 -7 -56 -19 -320 -19 -405 -1 -91 11 -364 19
-442 23 -226 34 -315 60 -452 61 -321 153 -639 280 -966 49 -128 237 -503 327
-654 122 -204 351 -530 444 -631 11 -11 40 -45 66 -75 26 -30 59 -68 73 -85
42 -48 190 -197 284 -288 468 -447 1102 -834 1715 -1048 367 -127 705 -207
1041 -245 33 -3 69 -8 80 -10 70 -14 203 -19 520 -19 398 1 455 4 720 45 33 6
80 12 105 16 159 20 493 104 728 183 318 107 711 285 922 416 19 12 40 24 45
26 36 15 301 193 415 278 178 133 343 277 544 476 645 640 1111 1483 1316
2385 22 99 74 404 85 500 3 30 10 91 15 135 9 89 6 867 -4 930 -3 22 -13 94
-21 160 -43 336 -113 626 -245 1010 -145 424 -426 940 -714 1315 -44 58 -85
110 -91 116 -5 7 -26 31 -44 54 -19 23 -40 48 -45 54 -6 6 -31 34 -55 61 -340
385 -781 743 -1231 1002 -634 365 -1382 594 -2080 638 -109 6 -632 14 -650 10z"/>
</g>
</svg>
